HIERARCHY
ROOT root
{
	OFFSET	0	13.1	24.9
	CHANNELS 6  Xposition Yposition Zposition Xrotation Yrotation Zrotation
	JOINT spine_1
	{
		OFFSET	0	9.99999	0
		CHANNELS 3  Xrotation Yrotation Zrotation
		JOINT spine_2
		{
			OFFSET	0	112	-10
			CHANNELS 3  Xrotation Yrotation Zrotation
			JOINT spine_3
			{
				OFFSET	0	206.5	19.3
				CHANNELS 3  Xrotation Yrotation Zrotation
				JOINT spine_4
				{
					OFFSET	0	110.4	14.6
					CHANNELS 3  Xrotation Yrotation Zrotation
					JOINT neck_1
					{
						OFFSET	0	71.8	-50.3
						CHANNELS 3  Xrotation Yrotation Zrotation
						JOINT neck_2
						{
							OFFSET	0	86.2	-25.8
							CHANNELS 3  Xrotation Yrotation Zrotation
							JOINT head_ee
							{
								OFFSET	0	179.8	-8.7
								CHANNELS 3  Xrotation Yrotation Zrotation
								End Site
								{
									OFFSET	1	0	0
								}
							}
						}
					}
					JOINT left_clavicle
					{
						OFFSET	-43.2	22.4	-70.8
						CHANNELS 3  Xrotation Yrotation Zrotation
						JOINT left_shoulder
						{
							OFFSET	-93.9	-5.79999	48.7
							CHANNELS 3  Xrotation Yrotation Zrotation
							JOINT left_elbow
							{
								OFFSET	-291.4	-30.8	15.2
								CHANNELS 3  Xrotation Yrotation Zrotation
								JOINT left_lowarm_twist
								{
									OFFSET	-110.7	-3.89999	13.6
									CHANNELS 3  Xrotation Yrotation Zrotation
									JOINT left_hand
									{
										OFFSET	-110.7	-3.89999	13.6
										CHANNELS 3  Xrotation Yrotation Zrotation
										JOINT left_ee
										{
											OFFSET	-80.8	-5.10001	12.1
											CHANNELS 3  Xrotation Yrotation Zrotation
											End Site
											{
												OFFSET	1	0	0
											}
										}
									}
								}
							}
						}
					}
					JOINT right_clavicle
					{
						OFFSET	43.2	22.4	-70.8
						CHANNELS 3  Xrotation Yrotation Zrotation
						JOINT right_shoulder
						{
							OFFSET	93.9	-5.79999	48.7
							CHANNELS 3  Xrotation Yrotation Zrotation
							JOINT right_elbow
							{
								OFFSET	291.4	-30.8	15.2
								CHANNELS 3  Xrotation Yrotation Zrotation
								JOINT right_lowarm_twist
								{
									OFFSET	110.7	-3.89999	13.6
									CHANNELS 3  Xrotation Yrotation Zrotation
									JOINT right_hand
									{
										OFFSET	110.7	-3.89999	13.6
										CHANNELS 3  Xrotation Yrotation Zrotation
										JOINT right_ee
										{
											OFFSET	80.8	-5.10001	12.1
											CHANNELS 3  Xrotation Yrotation Zrotation
											End Site
											{
												OFFSET	1	0	0
											}
										}
									}
								}
							}
						}
					}
				}
			}
		}
	}
	JOINT left_hip
	{
		OFFSET	-82.8	-127.5	0.300001
		CHANNELS 3  Xrotation Yrotation Zrotation
		JOINT left_knee
		{
			OFFSET	-28.2	-396.7	2.2
			CHANNELS 3  Xrotation Yrotation Zrotation
			JOINT left_ankle
			{
				OFFSET	-11.7	-411.3	35.4
				CHANNELS 3  Xrotation Yrotation Zrotation
				JOINT left_toes
				{
					OFFSET	0	-60	-88.6
					CHANNELS 3  Xrotation Yrotation Zrotation
					JOINT left_foot_ee
					{
						OFFSET	-22.5	-16.5	-42.2
						CHANNELS 3  Xrotation Yrotation Zrotation
						End Site
						{
							OFFSET	1	0	0
						}
					}
				}
			}
		}
	}
	JOINT right_hip
	{
		OFFSET	82.8	-127.5	0.300001
		CHANNELS 3  Xrotation Yrotation Zrotation
		JOINT right_knee
		{
			OFFSET	28.2	-396.7	2.2
			CHANNELS 3  Xrotation Yrotation Zrotation
			JOINT right_ankle
			{
				OFFSET	11.7	-411.3	35.4
				CHANNELS 3  Xrotation Yrotation Zrotation
				JOINT right_toes
				{
					OFFSET	0	-60	-88.6
					CHANNELS 3  Xrotation Yrotation Zrotation
					JOINT right_foot_ee
					{
						OFFSET	22.5	-16.5	-42.2
						CHANNELS 3  Xrotation Yrotation Zrotation
						End Site
						{
							OFFSET	1	0	0
						}
					}
				}
			}
		}
	}
}
MOTION
Frames: 11
Frame Time: 0.02
3583.03 732.386 -1416.24 4.04809 64.4374 -2.06757 -2.09137 0.0476098 0.135203 -2.09136 0.03891 0.137958 -2.09125 0.00381921 0.143289 -2.09128 0.0264011 0.140888 -4.28352 19.9344 -2.98522 -3.70787 38.8396 0.0919783 -0.0 0.0 -0.0 -0.813065 23.4911 1.60615 -8.73151 -23.6265 76.1398 0.851317 -22.8658 0.172167 -21.0525 -1.19638 2.39623 -1.01524 24.0691 3.7613 -0.0 0.0 -0.0 12.3079 22.8239 -24.4125 -12.9306 27.3732 -56.8721 1.04714 27.4162 -0.25543 72.0178 2.95239 8.09738 3.09793 -29.8833 -29.6169 0.0 0.0 0.0 -2.0282 11.6553 -6.1149 -15.649 0.322076 2.37246 30.6144 -0.610173 -3.98026 -25.0095 0.0 0.0 -0.0 0.0 -0.0 5.78505 -46.4948 1.2015 -12.9325 -0.312886 -1.95582 28.0124 34.0535 4.81254 -1.79396 0.0 0.0 0.0 0.0 0.0 
3579.48 731.066 -1416.19 4.34748 65.0634 -2.67828 -2.26369 0.13073 0.231012 -2.26367 0.115765 0.238863 -2.26314 0.0527451 0.260144 -2.26322 0.0931679 0.248549 -5.8905 20.133 -2.18668 -5.65523 38.8784 1.58824 -0.0 0.0 -0.0 -0.183838 23.2553 2.4392 -9.3242 -23.5781 74.7688 0.784119 -21.2276 0.146941 -21.436 -1.22611 2.43534 -1.1403 22.8736 2.53075 -0.0 0.0 -0.0 12.4813 23.8245 -24.716 -12.9055 27.6581 -56.7036 0.979548 25.884 -0.225107 72.2568 2.97784 8.11448 3.10552 -30.2199 -29.7121 0.0 0.0 0.0 -2.0198 10.3586 -6.05178 -15.8384 0.32198 2.40153 29.1488 -1.83428 -3.83407 -24.9935 0.0 0.0 -0.0 0.0 -0.0 5.67032 -46.0621 1.09755 -12.2386 -0.307372 -1.84949 28.6089 32.243 4.76939 -0.633823 0.0 0.0 0.0 0.0 0.0 
3579.26 732.874 -1414.32 4.28528 65.4748 -2.70223 -2.26351 0.0576698 0.195191 -2.26349 0.0451324 0.198465 -2.26331 -0.00562753 0.203455 -2.26336 0.0265749 0.20179 -5.25822 19.6462 -3.60813 -4.84965 38.9083 -0.215499 -0.0 0.0 -0.0 0.650146 23.1878 3.57918 -10.7479 -23.4631 73.572 0.819498 -22.0948 0.160001 -21.6318 -1.2414 2.45524 -1.45957 21.2403 -0.0519096 -0.0 0.0 -0.0 12.5935 24.4525 -24.9108 -12.0625 27.4953 -56.8161 0.902898 24.0972 -0.192721 71.4584 2.89308 8.05692 3.0044 -30.1136 -29.0584 0.0 0.0 0.0 -1.81046 10.7745 -6.00645 -15.0511 0.321749 2.28072 27.9878 -1.58215 -3.70444 -25.0777 0.0 0.0 -0.0 0.0 -0.0 5.12975 -43.1088 1.05437 -11.0815 -0.295313 -1.67236 26.7481 31.0792 4.44718 -0.357244 0.0 0.0 0.0 0.0 0.0 
3579.54 737.06 -1415.5 4.50673 65.7007 -3.08363 -2.34794 0.277427 0.188949 -2.34795 0.264842 0.20622 -2.34697 0.204869 0.265888 -2.34699 0.24429 0.230196 -7.12999 19.929 -2.43461 -7.13316 38.8525 1.79468 -0.0 0.0 -0.0 1.6566 22.729 4.93839 -11.8633 -23.1042 70.4591 0.88768 -23.7363 0.186552 -22.1658 -1.28342 2.50923 -1.6794 19.7666 -2.03134 -0.0 0.0 -0.0 12.5135 24.8335 -24.6862 -12.3431 27.1353 -56.8321 0.864886 23.192 -0.177476 73.3309 3.09313 8.19005 3.16554 -30.2963 -30.1036 0.0 0.0 0.0 -1.82219 11.1849 -5.85536 -15.369 0.322042 2.3295 26.0711 -3.01318 -3.50227 -25.9816 0.0 0.0 -0.0 0.0 -0.0 4.72769 -39.0659 0.628172 -11.0169 -0.294535 -1.66248 27.248 31.1069 4.51637 1.60301 -0.0 -0.0 0.0 0.0 0.0 
3578.14 734.61 -1417.98 5.22878 65.9223 -3.8919 -2.30555 0.393924 0.196045 -2.3056 0.380651 0.220714 -2.30412 0.313609 0.308641 -2.30408 0.358418 0.255239 -8.5011 20.3627 -1.29468 -8.80536 39.0665 3.5936 -0.0 0.0 -0.0 3.26348 22.6472 7.18436 -13.334 -22.4628 66.5431 0.906656 -24.186 0.194258 -23.4369 -1.38545 2.63614 -1.80471 19.2381 -3.02899 -0.0 0.0 -0.0 12.8038 25.2896 -25.3055 -12.3008 26.7585 -57.4134 0.798526 21.582 -0.152199 73.8932 3.15403 8.22875 3.06979 -30.4459 -29.5173 0.0 0.0 0.0 -1.95206 11.7618 -6.08746 -15.2974 0.322 2.31852 27.3178 -3.12835 -3.64489 -26.308 0.0 0.0 -0.0 0.0 -0.0 4.30459 -35.3407 0.213241 -11.2633 -0.297445 -1.70017 26.9719 32.0292 4.53542 2.16849 -0.0 -0.0 0.0 0.0 0.0 
3575.41 734.265 -1418.37 4.8766 67.184 -3.79639 -2.21038 0.422326 0.177512 -2.21045 0.410175 0.204026 -2.20899 0.346859 0.299265 -2.20891 0.389769 0.240729 -8.7197 20.167 -1.2469 -9.05962 38.6952 3.67632 -0.0 0.0 -0.0 3.71548 22.0882 7.81936 -13.1908 -22.2109 65.3153 0.945407 -25.0945 0.210415 -23.8822 -1.42186 2.68007 -1.72025 17.9516 -3.13157 -0.0 0.0 -0.0 12.8822 26.0874 -25.395 -12.4525 25.9163 -57.5473 0.713888 19.4756 -0.122514 74.5007 3.22027 8.26989 3.0102 -30.2726 -29.1179 0.0 0.0 0.0 -2.03979 12.5373 -5.97966 -14.8391 0.321403 2.2482 28.2827 -3.89686 -3.76103 -26.6465 0.0 0.0 -0.0 0.0 -0.0 3.96911 -32.0809 0.101392 -11.8739 -0.303957 -1.79363 28.209 32.1023 4.70708 2.81716 -0.0 -0.0 0.0 0.0 0.0 
3570.11 732.505 -1415.1 5.05414 67.5 -4.2013 -2.1187 0.32052 0.17772 -2.11873 0.308562 0.197756 -2.11765 0.250391 0.267623 -2.11763 0.289514 0.22472 -8.8237 19.9479 -1.80552 -9.17418 38.6736 3.11356 -0.0 0.0 -0.0 3.21353 21.3938 7.09121 -12.4894 -22.9363 66.7101 0.983978 -25.9857 0.227045 -23.9177 -1.42478 2.68357 -2.02491 18.7528 -4.58551 -0.0 0.0 -0.0 12.3603 23.2124 -24.4968 -13.0161 25.559 -57.8845 0.759263 20.6121 -0.138066 74.0404 3.17004 8.23878 2.54618 -29.9743 -26.1998 0.0 0.0 0.0 -2.19629 13.7179 -5.44433 -14.743 0.321207 2.23345 27.5253 -4.3818 -3.68248 -28.2916 0.0 0.0 -0.0 0.0 -0.0 4.02812 -36.9507 1.25137 -10.5346 -0.28837 -1.58873 25.6273 33.0635 4.41298 3.22356 -0.0 -0.0 0.0 0.0 0.0 
3566.31 733.615 -1416.18 3.66719 67.5563 -2.67094 -2.04839 0.390289 0.10446 -2.04847 0.382851 0.129084 -2.04763 0.339565 0.218936 -2.04751 0.36988 0.16256 -8.12674 20.1376 -1.78513 -8.34445 38.9271 2.89838 -0.0 0.0 -0.0 4.03785 20.9812 8.28435 -13.2651 -21.7783 65.1073 1.00319 -26.4246 0.23553 -24.2635 -1.45332 2.71747 -1.57122 16.6991 -2.812 -0.0 0.0 -0.0 12.5458 25.2589 -24.7142 -12.9849 25.9059 -58.2761 0.602184 16.6102 -0.0879048 73.9713 3.16253 8.23408 2.88309 -30.0079 -28.2823 0.0 0.0 0.0 -2.11596 15.3451 -5.53695 -14.4997 0.320599 2.19614 27.9638 -5.29208 -3.74316 -26.2835 0.0 0.0 -0.0 0.0 -0.0 2.90397 -24.9756 -0.0501898 -9.44018 -0.272079 -1.42159 26.3761 32.3498 4.47334 3.1521 -0.0 -0.0 0.0 0.0 0.0 
3565.23 732.72 -1414.21 3.05706 67.2718 -2.12539 -1.9526 0.386094 0.0741313 -1.95268 0.380594 0.0985495 -1.95206 0.345171 0.188205 -1.95192 0.370563 0.131329 -8.19681 20.1055 -2.18854 -8.42395 39.1521 2.52186 -0.0 0.0 -0.0 3.97363 19.9788 8.1901 -13.3964 -21.462 65.2628 1.03791 -27.2093 0.251191 -23.8484 -1.41909 2.67675 -1.46573 16.161 -2.41439 -0.0 0.0 -0.0 12.4891 25.313 -24.578 -13.9682 25.7974 -58.3633 0.598054 16.5025 -0.0867279 74.0364 3.16961 8.23851 2.94644 -29.8177 -28.6499 0.0 0.0 0.0 -2.17778 16.3756 -5.00395 -14.1101 0.319295 2.13638 27.87 -4.84916 -3.72689 -26.2126 0.0 0.0 -0.0 0.0 -0.0 2.67704 -22.8914 -0.177549 -7.98204 -0.245418 -1.19943 25.3164 32.8401 4.35471 2.74326 -0.0 -0.0 0.0 0.0 0.0 
3564.4 732.157 -1412.72 2.31 67.5625 -2.00516 -1.95613 0.285465 0.0626402 -1.95617 0.280901 0.0806783 -1.95579 0.252813 0.146627 -1.95572 0.272798 0.10486 -8.39743 20.2214 -1.3427 -8.67498 38.8188 3.46572 -0.0 0.0 -0.0 4.35714 20.2372 8.7595 -13.4982 -20.5795 64.3213 1.09877 -28.5586 0.279658 -24.7558 -1.49429 2.76544 -1.65017 14.9606 -4.1113 -0.0 0.0 -0.0 11.9977 23.5865 -23.6287 -14.4984 25.5435 -58.4691 0.652483 17.912 -0.102831 73.6327 3.12577 8.2109 2.41148 -29.9163 -25.3721 0.0 0.0 0.0 -2.31125 16.0993 -4.19095 -14.0468 0.319045 2.12667 28.7881 -3.23653 -3.80912 -25.8458 0.0 0.0 -0.0 0.0 -0.0 3.07472 -22.3004 0.114123 -6.76132 -0.218755 -1.014 24.3379 32.4847 4.19255 2.8786 -0.0 -0.0 0.0 0.0 0.0 
3565.36 733.406 -1411.52 1.61187 66.9519 -1.34623 -1.94062 0.158671 0.0972211 -1.94063 0.152163 0.107121 -1.94034 0.121549 0.140905 -1.94034 0.142277 0.11994 -8.22304 20.3461 -1.43271 -8.46955 39.0908 3.339 -0.0 0.0 -0.0 4.85238 20.5395 9.48965 -13.5386 -19.2222 63.0403 1.17511 -30.2033 0.317116 -24.275 -1.45427 2.71859 -0.891752 12.0619 -0.670438 -0.0 0.0 -0.0 12.254 25.437 -24.0247 -14.5309 25.485 -58.5405 0.617079 16.9976 -0.0922108 72.7234 3.02775 8.14757 1.81284 -27.4245 -21.2362 0.0 0.0 0.0 -1.94202 15.7248 -3.5848 -14.0827 0.319188 2.13218 28.8385 -0.158029 -3.78624 -25.52 0.0 0.0 -0.0 0.0 -0.0 3.07454 -21.5595 0.226475 -6.19632 -0.205077 -0.928379 24.5898 33.4219 4.28619 4.32456 -0.0 -0.0 0.0 0.0 0.0 
